<?xml version="1.0" encoding="UTF-8"?>
<!-- Generated by Pixelmator Pro 3.7 -->
<svg width="530" height="656" viewBox="0 0 530 656" xmlns="http://www.w3.org/2000/svg">
    <path id="Shape" fill="#fdf8ed" fill-rule="evenodd" stroke="none" d="M 271.5 655.520142 C 244 655.681335 217.674988 655.427979 213 654.957153 C 208.325012 654.486328 200.225006 653.381348 195 652.501587 C 189.774994 651.621826 180.811157 649.757324 175.080353 648.358276 C 169.349548 646.959229 160.275055 644.287964 154.914825 642.422241 C 149.554565 640.556396 141.013885 637.227722 135.935486 635.025146 C 130.857086 632.82251 122.831573 628.932373 118.101013 626.380432 C 113.370453 623.828491 105.050659 618.812073 99.612579 615.232788 C 94.174469 611.653564 85.399475 605.242615 80.112579 600.986328 C 74.825653 596.72998 65.321655 587.904297 58.992584 581.373779 C 52.663513 574.843201 44.506744 565.524414 40.866455 560.665405 C 37.226166 555.806335 31.426361 547.09436 27.977997 541.305481 C 24.529633 535.516602 19.800629 526.442139 17.469055 521.140137 C 15.137482 515.838013 11.798431 507.225006 10.048889 502 C 8.299347 496.774994 6.030396 488.899994 5.006775 484.5 C 3.983154 480.100006 2.437881 471.717255 1.57283 465.871674 C 0.203995 456.621857 0.00238 438.333832 0.018326 324.871643 C 0.033798 214.722168 0.268082 192.87146 1.528717 184.000793 C 2.349365 178.226257 4.111053 169.001221 5.443588 163.500793 C 6.776123 158.000366 9.50946 148.775024 11.51767 143 C 13.525879 137.224976 17.811249 127.099976 21.04071 120.5 C 24.270172 113.900024 29.547913 104.450012 32.769012 99.5 C 35.990143 94.549988 42.262115 85.986328 46.706787 80.469604 C 51.151428 74.952881 59.197449 66.223694 64.586792 61.071472 C 69.976135 55.919189 78.857758 48.375427 84.32373 44.307495 C 89.789734 40.239624 98.552673 34.386047 103.796967 31.299622 C 109.04126 28.213196 118.094818 23.562439 123.916016 20.9646 C 129.737213 18.36676 140.125 14.424561 147 12.204224 C 153.875 9.983887 165.127533 7.014709 172.005585 5.606079 C 178.883667 4.197449 190.133667 2.472351 197.005585 1.772461 C 205.537842 0.903503 227.57547 0.5 266.5 0.5 C 304.949158 0.5 327.405457 0.905884 335.5 1.747131 C 342.099976 2.433105 353.125 4.138 360 5.535889 C 366.875 6.933777 378.575012 10.120056 386 12.616577 C 393.424988 15.113098 405.349976 20.014526 412.5 23.508667 C 419.650024 27.002869 430.224976 32.996704 436 36.82843 C 441.775024 40.660156 450.775024 47.378418 456 51.757996 C 461.224976 56.137512 468.456848 62.856567 472.070801 66.689148 C 475.684692 70.521729 481.166138 76.821655 484.25177 80.688904 C 487.337402 84.556152 492.820923 92.236206 496.437317 97.755737 C 500.053711 103.275208 505.693542 113.350647 508.970215 120.145569 C 512.246887 126.940491 516.762207 138.004089 519.004211 144.731323 C 521.246216 151.458557 523.941528 160.908569 524.993774 165.731323 C 526.046082 170.554077 527.602966 179.810547 528.453491 186.301208 C 529.777527 196.404907 530 216.060242 530 322.945251 C 530 403.568542 529.625122 451.456177 528.941711 458.144043 C 528.359619 463.839813 526.797974 473.634247 525.471375 479.909454 C 524.144775 486.184631 521.243896 496.759644 519.024963 503.409454 C 516.806091 510.059235 512.300659 521.043762 509.013 527.819458 C 505.725342 534.595215 500.49939 544.045166 497.399719 548.819458 C 494.30011 553.59375 488.50177 561.549988 484.514587 566.5 C 480.527466 571.450012 471.91803 580.69165 465.382568 587.036987 C 458.847168 593.382324 448.982056 601.959106 443.460144 606.096436 C 437.938171 610.233826 429.163208 616.258484 423.960144 619.484619 C 418.75708 622.710754 408.650024 628.16217 401.5 631.598938 C 394.349976 635.035706 383.109558 639.700195 376.52124 641.964355 C 369.932861 644.228577 360.211731 647.178894 354.91864 648.52063 C 349.625549 649.862366 339.940979 651.920227 333.3974 653.093628 C 322.478455 655.051697 317.388 655.251221 271.5 655.520142 Z M 480.814636 532.646484 C 467.331116 523.763672 460.510315 518.103333 456.958252 514.337097 C 453.40625 510.570892 448.287231 504.129578 445.582703 500.023071 C 442.878235 495.916565 438.480835 487.983368 435.810669 482.393707 C 433.140564 476.804077 428.731445 465.482635 426.012573 457.234985 C 423.293762 448.987305 418.392456 431.272888 415.120911 417.869598 C 411.849304 404.466309 406.183716 379.549988 402.530701 362.5 C 398.877747 345.450012 394.060547 324.087219 391.825928 315.027222 C 389.591248 305.967163 385.77356 292.6922 383.342163 285.527222 C 380.910767 278.362244 376.28241 267.099976 373.057007 260.5 C 369.831665 253.900024 364.84613 244.900024 361.97821 240.5 C 359.110229 236.099976 354.400696 229.559387 351.512634 225.965271 C 346.261597 219.430481 346.261597 219.430481 345.709961 193.465271 C 345.256104 172.102661 344.789246 165.904663 343.076416 158.5 C 341.931396 153.549988 339.428284 145.450012 337.513977 140.5 C 335.59967 135.549988 332.107849 128.125 329.754395 124 C 327.40094 119.875 322.725037 112.900024 319.363586 108.5 C 316.002075 104.099976 309.707581 96.884399 305.375854 92.465393 C 301.044128 88.046326 296.089844 83.440491 294.366333 82.230103 C 291.232666 80.02948 291.232666 80.02948 291.658386 86.264771 C 291.892517 89.694153 292.500916 101.275024 293.010376 112 C 293.519836 122.724976 294.243958 142.779175 294.619568 156.564819 L 295.302429 181.629639 L 280.401245 181.586243 C 268.358398 181.551208 263.701538 181.970032 256.124237 183.769836 C 248.08963 185.678223 243.726715 187.661804 225.624237 197.636475 C 214.00592 204.038269 194.375 215.136536 182 222.299194 C 169.625 229.461914 151.174988 240.34259 141 246.478577 C 130.825012 252.614502 114.174988 262.993591 104 269.543213 C 93.825012 276.092834 83.29483 283.487488 80.599609 285.97583 C 77.904388 288.464111 74.813507 292.485535 73.730988 294.912354 C 72.226044 298.286194 71.905273 300.536865 72.368103 304.475037 C 72.70105 307.307678 73.461975 311.026794 74.059113 312.739685 C 74.656219 314.452576 75.224945 321.849365 75.322968 329.177002 C 75.479095 340.850342 75.796936 343.154724 77.889923 347.787689 C 79.274933 350.853424 82.154327 354.726349 84.742249 357.004333 C 87.197205 359.165253 91.651398 361.848297 94.640411 362.966644 C 98.632141 364.460144 102.474121 365 109.111206 365 C 116.008179 365 119.846252 364.429443 125.323669 362.589874 C 129.27066 361.264313 136.069855 358.552399 140.433044 356.563354 C 148.366089 352.94696 148.366089 352.94696 164.433044 356.542725 C 173.269867 358.520416 187.032532 361.228424 195.016724 362.560547 C 203.000946 363.8927 215.15094 365.35434 222.016724 365.808685 C 228.882538 366.263031 239.225006 366.315765 245 365.925873 C 250.774994 365.53598 258.424988 364.456696 262 363.527466 C 265.575012 362.598236 271.283936 360.515045 274.686462 358.898193 C 278.08905 357.281372 283.141724 354.165131 285.914612 351.973236 C 288.687561 349.781372 293.178711 344.823425 295.894958 340.955627 C 298.611267 337.087799 301.658569 331.917175 302.666809 329.465332 C 303.675049 327.01355 304.776062 325.005798 305.113464 325.003723 C 305.450928 325.001709 305.304382 327.362488 304.787964 330.25 C 304.271484 333.137512 302.724792 338.875 301.350891 343 C 299.97699 347.125 297.451111 352.975006 295.737854 356 C 294.024658 359.024994 289.60083 364.540985 285.907104 368.257751 C 281.362 372.831329 277.109985 375.989532 272.751648 378.029053 C 269.209778 379.686493 262.979187 381.757538 258.905945 382.631409 C 254.832672 383.505249 245.664734 384.508179 238.532745 384.860107 L 225.565521 385.5 L 221.873993 401 C 219.843658 409.524994 215.911774 426.625 213.136444 439 C 210.361145 451.375 206.075439 472.524994 203.61264 486 C 201.149872 499.475006 198.2229 517.700012 197.108276 526.5 C 195.993652 535.299988 194.549774 549.924988 193.899658 559 C 193.171448 569.165222 192.979523 582.410645 193.39975 593.5 C 193.774902 603.400024 194.487213 614.200012 194.982605 617.5 C 195.478027 620.799988 196.151794 624.945313 196.479858 626.711853 C 196.977448 629.391418 197.633362 630.028198 200.437622 630.55426 C 202.286346 630.901123 208.006683 631.529175 213.149475 631.949951 C 218.292267 632.370728 240.950012 632.774475 263.5 632.847168 C 286.049988 632.919861 309.900024 632.507202 316.5 631.930115 C 323.099976 631.353027 333.900024 629.748413 340.5 628.36438 C 347.099976 626.980347 358.59613 623.862183 366.046936 621.435181 C 373.497681 619.008057 385.931458 613.887146 393.67749 610.055298 C 401.423462 606.223389 412.652344 599.817627 418.630554 595.820313 C 424.608765 591.822876 432.424988 586.116089 436 583.13855 C 439.575012 580.16095 446.022217 574.299194 450.327148 570.112366 C 454.632019 565.925537 460.980591 559.125 464.435059 555 C 467.889526 550.875 472.988159 544.157959 475.765259 540.073242 L 480.814636 532.646484 Z M 176.375 624.944824 C 177.939972 624.990845 178.148743 624.493652 177.637573 621.937805 C 177.30072 620.253601 176.503662 612.491089 175.866333 604.687805 C 175.165497 596.107361 174.957001 583.188354 175.338776 572 C 175.685944 561.825012 176.900909 545.400024 178.038696 535.5 C 179.176483 525.599976 181.656738 508.274994 183.550385 497 C 185.444031 485.725006 188.752411 467.950012 190.902313 457.5 C 193.052246 447.049988 197.605377 426.214142 201.020386 411.19809 C 204.435394 396.182007 207.038055 383.704712 206.804077 383.470764 C 206.570099 383.236786 200.105988 381.893616 192.439331 380.485931 C 184.772705 379.078247 171.885895 376.356384 163.801971 374.437378 C 149.103943 370.948242 149.103943 370.948242 142.13739 374.498596 C 138.305786 376.451294 132.544922 378.993286 129.335419 380.147461 C 125.183624 381.640533 120.146729 382.389008 111.877594 382.741699 C 101.743805 383.17392 99.261536 382.942444 92.497467 380.934418 C 88.230743 379.667755 82.207092 376.994446 79.111572 374.993713 C 76.016052 372.992981 71.513794 369.138428 69.106537 366.428009 C 66.69928 363.717621 63.679596 359.259308 62.396088 356.520721 C 61.112579 353.782104 59.373779 348.382111 58.532074 344.520721 C 57.690369 340.659332 56.793213 332.549988 56.538422 326.5 C 56.2836 320.450012 55.671509 312.799988 55.178223 309.5 C 54.684906 306.200012 54.647552 300.81543 55.095184 297.534302 C 55.560486 294.123718 57.428711 288.493835 59.457092 284.389648 C 61.939178 279.367493 64.819641 275.530762 69.044678 271.619141 C 72.366455 268.543762 80.802795 262.241333 87.792114 257.613708 C 94.781464 252.986084 107.25 245.174438 115.5 240.254517 C 123.75 235.334595 139.049988 226.343384 149.5 220.274048 C 159.950012 214.204773 176.445282 204.737183 186.156219 199.235107 C 195.867126 193.733032 209.85849 185.972351 217.248138 181.989197 C 224.637756 178.006042 231.703796 173.977722 232.950439 173.037415 C 235.21701 171.327698 235.21701 171.327698 231.154602 158.913879 C 228.920258 152.086243 224.999878 139.299988 222.442657 130.5 C 219.885437 121.700012 215.559448 107.111145 212.829346 98.080261 C 210.099274 89.049377 207.611115 79.511963 207.30011 76.886047 C 206.784576 72.533203 207.004517 71.841675 209.790405 69.055786 C 211.760468 67.085693 213.850525 66.001343 215.673065 66.003723 C 217.227875 66.005798 219.918152 66.872192 221.651428 67.929077 C 223.384705 68.985962 227.092865 72.602417 229.891754 75.965637 C 232.690674 79.328918 238.358795 87.196411 242.48761 93.448975 C 246.616394 99.701599 253.799377 111.687622 258.449799 120.084717 C 263.100189 128.48175 269.063904 140.560364 271.702515 146.926025 C 276.037231 157.383545 276.528687 158.159424 276.797302 154.969421 C 276.960815 153.027588 276.624634 141.552551 276.050232 129.469421 C 275.475891 117.38623 274.551392 100.75 273.99585 92.5 C 273.440308 84.25 272.707764 74.113892 272.36792 69.975281 C 271.780151 62.817322 271.882324 62.293335 274.463928 59.225281 C 276.748352 56.510315 277.85968 56 281.487366 56 C 284.362976 56 287.743896 57.022766 291.648438 59.073853 C 294.866821 60.764465 299.897644 63.955566 302.828125 66.165222 C 305.758606 68.374878 311.302185 73.150513 315.147278 76.77771 C 318.99231 80.404968 324.972107 86.776367 328.435608 90.93634 C 331.89917 95.096375 337.081787 102.099976 339.952637 106.5 C 342.823425 110.900024 347.103394 118.549988 349.463684 123.5 C 351.823975 128.450012 355.159485 136.890564 356.875916 142.256836 C 358.592346 147.623169 360.693542 155.723145 361.545227 160.256836 C 362.470154 165.180664 363.330872 177.433838 363.682739 190.685913 C 364.271851 212.871826 364.271851 212.871826 369.723328 220.185913 C 372.721619 224.208679 377.593445 231.549988 380.549622 236.5 C 383.505798 241.450012 388.148071 250.224976 390.865723 256 C 393.583435 261.775024 397.859558 272.575012 400.368225 280 C 402.876953 287.424988 406.710083 300.700012 408.886414 309.5 C 411.062683 318.299988 415.162903 336.299988 417.998047 349.5 C 420.833191 362.700012 424.942566 381.375 427.129944 391 C 429.317383 400.625 432.927612 415.700012 435.15271 424.5 C 437.377808 433.299988 441.207397 446.575012 443.662903 454 C 446.118408 461.424988 450.342163 472 453.049011 477.5 C 455.755859 483 460.301575 490.588928 463.150513 494.364319 C 465.999512 498.139679 471.140625 503.54657 474.575256 506.379608 C 478.009888 509.212616 482.668579 512.569519 484.927917 513.839355 C 489.035767 516.148071 489.035767 516.148071 491.946411 509.824036 C 493.547241 506.345825 496.19928 499.639618 497.839905 494.921387 C 499.480469 490.203125 501.967285 481.203125 503.366211 474.921387 C 504.765076 468.639618 506.379944 458.839813 506.954773 453.144043 C 507.617432 446.578339 507.999695 399.547729 507.999146 324.644043 C 507.998657 250.490051 507.610657 202.404236 506.957214 195.5 C 506.384644 189.450012 504.997253 180.061157 503.874207 174.635864 C 502.751099 169.210632 500.249634 159.985657 498.315369 154.135864 C 496.381042 148.286133 492.616821 138.869812 489.950317 133.210693 C 487.283752 127.551636 482.998901 119.457214 480.428345 115.223145 C 477.857788 110.989075 473.22229 104.157898 470.127319 100.042725 C 467.032288 95.927551 460.483276 88.357239 455.573975 83.219849 C 450.664673 78.082458 443.239685 71.13031 439.073975 67.770569 C 434.908325 64.410828 427.450012 58.992004 422.5 55.728638 C 417.549988 52.465332 408.099976 47.151672 401.5 43.920471 C 394.900024 40.689331 384.099976 36.259644 377.5 34.076843 C 370.900024 31.893982 361 29.205078 355.5 28.101501 C 350 26.997864 341.686829 25.623535 337.026245 25.047485 C 331.935486 24.418213 303.379578 24 265.5 24 C 227.452576 24 199.087036 24.416931 193.973755 25.051331 C 189.313202 25.629578 181 27.026855 175.5 28.156372 C 170 29.285889 159.955658 32.018738 153.179199 34.22937 C 146.402771 36.440002 134.702789 41.305298 127.179199 45.04126 C 119.65564 48.777161 109.274536 54.762024 104.110077 58.340881 C 98.945618 61.9198 90.727264 68.326538 85.847107 72.578125 C 80.966949 76.829773 73.717438 84.098694 69.737061 88.731384 C 65.756683 93.364014 59.683289 101.05719 56.240631 105.827209 C 52.798004 110.597229 46.700439 121.025024 42.690521 129 C 38.680603 136.974976 33.911285 148 32.092041 153.5 C 30.272797 159 27.71109 168.224976 26.399323 174 C 25.087585 179.775024 23.512817 190.349976 22.899872 197.5 C 22.125549 206.532166 21.915833 248.346863 22.212769 334.5 C 22.59845 446.398712 22.806946 459.329529 24.349213 467 C 25.289215 471.674988 27.210236 479.774994 28.618164 485 C 30.026093 490.225006 33.199127 499.447021 35.669342 505.493378 C 38.139526 511.539764 42.629211 520.885132 45.646423 526.260864 C 48.663605 531.636597 54.533539 540.605225 58.690735 546.191162 C 62.847931 551.7771 70.355682 560.598145 75.374634 565.793579 C 80.393585 570.988892 89 578.866821 94.5 583.300049 C 100 587.733215 108.100006 593.704468 112.5 596.569458 C 116.899994 599.434448 124.850525 604.098755 130.167816 606.934509 C 135.485107 609.770264 143.810089 613.694641 148.667816 615.655334 C 153.525513 617.616028 161.325012 620.49585 166 622.054932 C 170.674988 623.614075 175.34375 624.91449 176.375 624.944824 Z"/>
</svg>
